<svg width="47" height="47" viewBox="0 0 47 47" fill="none" xmlns="http://www.w3.org/2000/svg">
<circle cx="23.5" cy="23.5" r="23.5" fill="#151A2F"/>
<path d="M30.0681 29.1091V19.8111H20.7954V19.23C20.7954 18.2687 21.5754 17.4867 22.5339 17.4867H24.2726V14H22.5339C19.6583 14 17.3182 16.3465 17.3182 19.23V19.8111H15V23.2979H17.3181V29.1091H15V32.5958H23.1137V29.1091H20.7954V23.2979H26.6231V29.1091H24.2726V32.5958H32.3862V29.1091H30.0681Z" fill="white"/>
<path d="M30.0681 15.7434C30.0681 16.7063 29.2895 17.4867 28.3293 17.4867C27.3693 17.4867 26.5908 16.7063 26.5908 15.7434C26.5908 14.7804 27.3693 14 28.3293 14C29.2895 14 30.0681 14.7804 30.0681 15.7434Z" fill="white"/>
</svg>
