<svg width="47" height="47" viewBox="0 0 47 47" fill="none" xmlns="http://www.w3.org/2000/svg">
<circle cx="23.5" cy="23.5" r="23.5" fill="#151A2F"/>
<mask id="mask0_706_43" style="mask-type:luminance" maskUnits="userSpaceOnUse" x="15" y="14" width="18" height="19">
<path d="M32.1605 14H15V32.9513H32.1605V14Z" fill="white"/>
</mask>
<g mask="url(#mask0_706_43)">
<path d="M27.8838 32.8866L20.4587 32.9519C20.515 32.859 20.5781 32.8826 20.6277 32.8697C20.6947 32.8635 20.7597 32.8439 20.8188 32.8119C20.8779 32.7799 20.93 32.7362 20.9717 32.6836C21.0135 32.6309 21.0442 32.5703 21.0618 32.5054C21.0795 32.4405 21.0838 32.3728 21.0746 32.3062C21.0746 31.6959 21.0678 31.0857 21.0746 30.4754C21.0746 30.3148 21.0238 30.2844 20.8711 30.3114C20.13 30.473 19.3601 30.4445 18.633 30.2286C18.2387 30.1114 17.876 29.9066 17.572 29.6295C17.268 29.3524 17.0307 29.0101 16.8777 28.6283C16.6015 27.8497 16.076 27.1842 15.3827 26.7349C15.2733 26.666 15.175 26.5807 15.0914 26.4819C14.9353 26.3022 14.9838 26.1478 15.2092 26.0757C15.467 26.0039 15.7405 26.0122 15.9936 26.0993C16.6335 26.2934 17.1767 26.7216 17.515 27.2984C17.7507 27.7122 18.0857 28.0608 18.4898 28.3127C18.8727 28.5137 19.2972 28.6229 19.7296 28.6315C20.162 28.6401 20.5904 28.5479 20.981 28.3623C21.087 28.3217 21.105 28.24 21.123 28.1442C21.2008 27.6815 21.3979 27.247 21.695 26.8837C21.7344 26.8358 21.8127 26.7896 21.7913 26.7271C21.7654 26.6516 21.6719 26.6651 21.6037 26.6566C20.998 26.5841 20.4006 26.4539 19.8197 26.2678C18.8867 26.0001 18.0552 25.459 17.4325 24.7144C16.8099 23.9698 16.4245 23.0558 16.326 22.0901C16.1862 21.3341 16.1687 20.5605 16.2742 19.7989C16.404 18.9647 16.7614 18.1824 17.3071 17.5382C17.3715 17.4753 17.4157 17.3944 17.4337 17.3061C17.4518 17.2178 17.443 17.1261 17.4085 17.0429C17.1343 16.0972 17.1891 15.0864 17.564 14.1759C17.617 14.0277 17.7331 14.0153 17.8582 14.0136C18.3255 14.0253 18.7864 14.1259 19.2162 14.31C19.8099 14.5461 20.3766 14.8452 20.9066 15.202C20.9586 15.2384 21.0183 15.2623 21.081 15.2721C21.1437 15.2819 21.2078 15.2772 21.2684 15.2583C23.1605 14.7727 25.1439 14.7663 27.0391 15.2397C27.1232 15.2642 27.2118 15.2694 27.2982 15.2547C27.3845 15.2401 27.4665 15.2061 27.5378 15.1552C28.2487 14.6518 29.0499 14.2902 29.8977 14.0902C30.8737 13.9037 30.7429 13.9555 30.9683 14.7478C31.1902 15.5112 31.186 16.3224 30.9565 17.0835C30.9309 17.1566 30.9267 17.2355 30.9445 17.3109C30.9622 17.3862 31.0012 17.455 31.0568 17.5089C31.7606 18.3376 32.1506 19.3874 32.1584 20.4746C32.1843 21.2935 32.0868 22.1116 31.8694 22.9015C31.6499 23.7259 31.2133 24.4764 30.605 25.0746C29.9968 25.6729 29.2392 26.097 28.4112 26.3028C27.8464 26.4676 27.2689 26.5853 26.6847 26.6544C26.6379 26.6606 26.572 26.642 26.5596 26.7056C26.5545 26.7366 26.5945 26.7795 26.621 26.811C27.0652 27.348 27.3016 28.0268 27.287 28.7235C27.3028 29.8505 27.287 30.9775 27.287 32.1045C27.287 32.6116 27.3282 32.6679 27.8122 32.8139C27.8378 32.8237 27.8624 32.8356 27.886 32.8494L27.8804 32.886" fill="white"/>
</g>
</svg>
